<svg width="40" height="18" viewBox="0 0 40 18" fill="none" xmlns="http://www.w3.org/2000/svg">
<path d="M18.0016 10.5672C18.1213 10.6545 18.2412 10.7422 18.3614 10.8302C19.804 11.9016 21.1751 12.8765 22.4746 13.7551C23.798 14.6658 24.9105 15.3594 25.8121 15.836C26.8733 16.3934 27.9754 16.771 29.1185 16.9687C30.2853 17.1986 31.4293 17.1964 32.5505 16.9621C33.7277 16.736 34.8623 16.2178 35.9544 15.4073C38.0102 13.8817 39.0996 12.0271 39.2226 9.84374C39.3778 7.6365 38.7164 5.53714 37.2385 3.54563C36.6663 2.77473 35.958 2.05513 35.1133 1.38686C34.3247 0.726858 33.4749 0.286542 32.564 0.0659322C31.6769 -0.122556 30.8158 0.093097 29.9807 0.71288C29.1777 1.30883 28.77 2.03477 28.7577 2.89071C28.7774 3.72282 29.0138 4.44403 29.4667 5.05433C30.015 5.79311 30.7047 6.25261 31.5358 6.43281C32.3907 6.64514 33.1555 6.50102 33.83 6.00043C34.2476 5.69053 34.5817 5.26821 34.8324 4.73347C35.0831 4.19873 35.154 3.62308 35.0451 3.00652C35.2534 2.95157 35.485 3.02875 35.74 3.23804C35.9949 3.44733 36.2654 3.74471 36.5515 4.13016C37.2905 5.12591 37.745 6.20821 37.9151 7.37709C38.1411 8.55425 38.0755 9.67394 37.7181 10.7361C37.3928 11.7745 36.7645 12.6393 35.8329 13.3306C35.0299 13.9266 34.0284 14.2215 32.8284 14.2155C31.6284 14.2094 30.0631 13.6775 28.1324 12.6197C26.7044 11.8364 25.2172 10.8729 23.671 9.72909C22.1486 8.61738 20.6822 7.51394 19.2717 6.4188C17.8612 5.32365 16.6378 4.41345 15.6015 3.68819C14.0469 2.60032 12.5629 1.8088 11.1494 1.31365C9.7359 0.818489 8.4048 0.63575 7.15613 0.765436C5.9313 0.927244 4.75677 1.42531 3.63253 2.25964C2.28345 3.26082 1.41779 4.37645 1.03556 5.60653C0.685455 6.81278 0.663326 8.02468 0.969171 9.24225C1.27502 10.4598 1.76168 11.5183 2.42914 12.4177C3.07276 13.2849 3.86092 14.0449 4.79363 14.6977C5.7823 15.3587 6.79633 15.7518 7.83571 15.8771C8.93105 16.0106 9.9284 15.7436 10.8278 15.0762C11.5987 14.5041 12.0463 13.7983 12.1705 12.959C12.3186 12.1517 12.1066 11.3626 11.5345 10.5917C10.9862 9.85292 10.2965 9.39343 9.46543 9.21323C8.63433 9.03302 7.83332 9.22896 7.06242 9.80106C6.25939 10.397 5.84395 11.0789 5.81607 11.8468C5.84414 12.623 6.00069 13.3037 6.28573 13.8892C6.01321 13.9918 5.66554 13.9261 5.24272 13.6919C4.8199 13.4578 4.39344 13.1516 3.96335 12.7734C3.58921 12.4035 3.29487 12.074 3.08033 11.7849C2.62741 11.1746 2.28329 10.4089 2.04794 9.4877C1.83644 8.59862 1.84099 7.69863 2.0616 6.78773C2.28221 5.87684 2.81009 5.1115 3.64523 4.49172C4.67311 3.72891 5.80622 3.51064 7.04459 3.83691C8.33892 4.17146 9.65192 4.7661 10.9836 5.62085C11.8448 6.17721 12.9211 6.92267 14.2123 7.85721C15.1031 8.48059 16.0095 9.12503 16.9316 9.79054C17.2859 10.0463 17.6426 10.3052 18.0016 10.5672Z" fill="#D2A64D"/>
</svg>
